<?xml version="1.0" encoding="UTF-8" standalone="no"?>
<!-- Created with Inkscape (http://www.inkscape.org/) -->

<svg
   width="210mm"
   height="297mm"
   viewBox="0 0 210 297"
   version="1.1"
   id="svg1"
   xml:space="preserve"
   inkscape:version="1.3 (0e150ed6c4, 2023-07-21)"
   sodipodi:docname="bresilla.svg"
   xmlns:inkscape="http://www.inkscape.org/namespaces/inkscape"
   xmlns:sodipodi="http://sodipodi.sourceforge.net/DTD/sodipodi-0.dtd"
   xmlns="http://www.w3.org/2000/svg"
   xmlns:svg="http://www.w3.org/2000/svg"><sodipodi:namedview
     id="namedview1"
     pagecolor="#ffffff"
     bordercolor="#000000"
     borderopacity="0.25"
     inkscape:showpageshadow="2"
     inkscape:pageopacity="0.0"
     inkscape:pagecheckerboard="0"
     inkscape:deskcolor="#d1d1d1"
     inkscape:document-units="mm"
     inkscape:zoom="0.8651983"
     inkscape:cx="225.95976"
     inkscape:cy="516.64456"
     inkscape:window-width="3432"
     inkscape:window-height="2132"
     inkscape:window-x="10"
     inkscape:window-y="14"
     inkscape:window-maximized="1"
     inkscape:current-layer="layer1" /><defs
     id="defs1" /><g
     inkscape:label="Layer 1"
     inkscape:groupmode="layer"
     id="layer1"><path
       style="fill:#000000;stroke-width:1.59677"
       d="m 89.893874,269.26066 v -2.74609 h -2.323633 -2.323629 v -2.95735 -2.95734 H 82.923 80.599371 v -2.74611 -2.74609 h -4.647258 -4.647256 v -2.95736 -2.95733 h -2.323613 -2.323629 v -2.74611 -2.74611 h -2.323628 -2.32363 v -2.95734 -2.95733 h -2.323628 -2.323628 v -11.4069 -11.40689 h 2.323628 2.323628 v 2.95734 2.95734 h 2.32363 2.323628 v 5.70345 5.70344 h 2.323629 2.323613 v 2.74611 2.74611 h 2.323628 2.323628 v -5.70346 -5.70344 h -2.323628 -2.323628 v -5.70345 -5.70344 h -2.323613 -2.323629 v -2.74609 -2.74612 H 55.039488 43.421345 v -2.95734 -2.95734 h -2.323613 -2.323628 v -5.70345 -5.70344 h -2.323629 -2.323628 v -5.70346 -5.70343 h -2.323628 -2.323613 v -5.70346 -5.70343 h -2.323629 -2.323629 v -8.44955 -8.44956 h -2.323629 -2.323628 v -14.36423 -14.36423 h 4.647257 4.647258 v -2.74611 -2.7461 h 2.323613 2.323628 v -2.95734 -2.95734 h 2.323628 2.323629 v -8.44955 -8.449553 h 2.323628 2.323613 V 84.004297 72.597396 h -2.323613 -2.323628 v 2.746105 2.746105 h -2.323629 -2.323628 v 8.660785 8.660796 h -2.323628 -2.323613 v 5.703443 5.70345 h -2.323629 -2.323629 v 2.74609 2.74612 h -2.323629 -2.323628 v -8.44955 -8.449553 h 2.323628 2.323629 v -5.703445 -5.703445 h 2.323629 2.323629 v -5.703445 -5.703456 h 2.323613 2.323628 v -2.95734 -2.957351 h 2.323628 2.323629 v -2.746094 -2.746105 h 2.323628 2.323613 V 58.23317 55.275817 h 2.323628 2.32363 v -2.7461 -2.746101 h 2.323628 2.323628 v -2.957337 -2.957353 h 4.647242 4.647256 v -2.746085 -2.746117 h 4.647258 4.647242 v -2.957336 -2.957345 h 6.970885 6.97087 V 29.71594 26.969837 h 18.589028 18.58901 v 2.746103 2.746103 h 6.97086 6.97088 v 2.957345 2.957336 h 4.64724 4.64726 v 2.746117 2.746085 h 4.64726 4.64724 v 2.957353 2.957337 h 2.32362 2.32364 v 2.746101 2.7461 h 2.32362 2.32363 v 2.957353 2.957336 h 2.32361 2.32364 v 2.746105 2.746094 h 2.32362 2.32363 v 2.957351 2.95734 h 2.32362 2.32361 v 5.703456 5.703445 h 2.32364 2.32363 v 5.703445 5.703445 h 2.32362 2.32364 v 8.449553 8.44955 h -2.32364 -2.32362 v -2.74612 -2.74609 h -2.32363 -2.32364 v -5.70345 -5.703443 h -2.32361 -2.32362 v -8.660796 -8.660785 h -2.32363 -2.32362 v -2.746105 -2.746105 h -2.32364 -2.32361 v 11.406901 11.40689 h 2.32361 2.32364 v 8.449553 8.44955 h 2.32362 2.32363 v 2.95734 2.95734 h 2.32362 2.32361 v 2.7461 2.74611 h 4.64727 4.64726 v 14.36423 14.36423 h -2.32364 -2.32362 v 8.44956 8.44955 h -2.32363 -2.32364 v 5.70343 5.70346 h -2.32361 -2.32362 v 5.70343 5.70346 h -2.32363 -2.32362 v 5.70344 5.70345 h -2.32364 -2.32361 v 2.95734 2.95734 h -11.61814 -11.61813 v 2.74612 2.74609 H 138.69 136.36639 v 5.70344 5.70345 h -2.32361 -2.32363 v 5.70344 5.70346 h 2.32363 2.32361 v -2.74611 -2.74611 h 2.32361 2.32363 v -5.70344 -5.70345 h 2.32363 2.32363 v -2.95734 -2.95734 h 2.32362 2.32364 v 11.40689 11.4069 h -2.32364 -2.32362 v 2.95733 2.95734 h -2.32363 -2.32363 v 2.74611 2.74611 H 138.69 136.36639 v 2.95733 2.95736 h -4.64724 -4.64726 v 2.74609 2.74611 h -2.32363 -2.32361 v 2.95734 2.95735 h -2.32364 -2.32362 v 2.74609 2.74611 H 103.83564 89.893874 Z m 4.647261,-22.81378 v -2.74611 h 9.294505 9.2945 v 2.74611 2.74611 h 2.32363 2.32362 v -2.74611 -2.74611 h -2.32362 -2.32363 v -2.95734 -2.95733 h -9.2945 -9.294505 v 2.95733 2.95734 h -2.323636 -2.323625 v 2.74611 2.74611 h 2.323625 2.323636 z m 4.647243,-28.51723 v -2.95734 h -2.32363 -2.323613 v 2.95734 2.95734 h 2.323613 2.32363 z m 13.941762,0 v -2.95734 h -2.32364 -2.32361 v 2.95734 2.95734 h 2.32361 2.32364 z M 89.893874,200.81933 v -8.6608 h 2.323625 2.323636 v 5.70344 5.70345 h 2.323613 2.32363 v -5.70345 -5.70344 h -2.32363 -2.323613 v -5.70346 -5.70343 h -2.323636 -2.323625 v -5.70346 -5.70343 h -2.323633 -2.323629 v -2.74612 -2.7461 H 82.923 80.599371 v 2.7461 2.74612 H 82.923 85.246612 v 5.70343 5.70346 H 82.923 80.599371 v -2.74611 -2.74611 h -2.323629 -2.323629 v -2.95733 -2.95734 h -2.323628 -2.323628 v -2.74612 -2.7461 h -2.323613 -2.323629 v -2.95733 -2.95734 h -4.647258 -4.647256 v -2.74612 -2.7461 h -4.647242 -4.647256 v -2.95734 -2.95733 h -4.647258 -4.647241 v 2.95733 2.95734 h -2.323629 -2.323628 v 8.44956 8.44955 h 2.323628 2.323629 v 5.70343 5.70346 h 2.323628 2.323613 v 2.95734 2.95734 h 2.323628 2.32363 v 2.74612 2.74609 h 2.323628 2.323628 v 2.95734 2.95734 h 9.294498 9.2945 v 2.74612 2.74609 h 6.970885 6.97087 v 2.95734 2.95734 h 2.323629 2.323633 z m -4.647262,-14.36426 v -5.70343 h 2.323629 2.323633 v 5.70343 5.70346 h -2.323633 -2.323629 z m 37.178038,20.06769 v -2.95734 h 6.97086 6.97088 v -2.74609 -2.74612 h 9.2945 9.2945 v -2.95734 -2.95734 h 2.32362 2.32364 v -2.74609 -2.74612 h 2.32362 2.32363 v -2.95734 -2.95734 h 2.32361 2.32364 v -5.70346 -5.70343 h 2.32362 2.32363 v -8.44955 -8.44956 h -2.32363 -2.32362 v -2.95734 -2.95733 h -4.64725 -4.64725 v 2.95733 2.95734 h -4.64726 -4.64724 v 2.7461 2.74612 h -4.64726 -4.64726 v 2.95734 2.95733 H 138.69 136.36639 v 2.7461 2.74612 h -2.32361 -2.32363 v 2.95734 2.95733 h -2.32364 -2.32362 v 2.74611 2.74611 h -2.32363 -2.32361 v -5.70346 -5.70343 h 2.32361 2.32363 v -2.74612 -2.7461 h -2.32363 -2.32361 v 2.7461 2.74612 h -2.32364 -2.32362 v 5.70343 5.70346 h -2.32362 -2.32363 v 5.70343 5.70346 h -2.32364 -2.32361 v 5.70344 5.70345 h 2.32361 2.32364 v -5.70345 -5.70344 h 2.32363 2.32362 v 8.6608 8.66077 h 2.32362 2.32364 z m -4.64726,-20.06769 v -5.70343 h 2.32362 2.32364 v 5.70343 5.70346 h -2.32364 -2.32362 z M 48.068603,69.640056 v -2.957351 h -2.32363 -2.323628 v 2.957351 2.95734 h 2.323628 2.32363 z m 116.181297,0 v -2.957351 h -2.32363 -2.32362 v 2.957351 2.95734 h 2.32362 2.32363 z"
       id="path1" /></g></svg>
